<svg width="16" height="20" viewBox="0 0 16 20" fill="none" xmlns="http://www.w3.org/2000/svg">
<path d="M13.4444 8.9939H2.55556C1.69645 8.9939 1 9.77603 1 10.7408V16.8551C1 17.8199 1.69645 18.6021 2.55556 18.6021H13.4444C14.3036 18.6021 15 17.8199 15 16.8551V10.7408C15 9.77603 14.3036 8.9939 13.4444 8.9939Z" stroke="#22BB86" stroke-width="1.5" stroke-linecap="round" stroke-linejoin="round"/>
<path d="M4.11108 8.99379V5.49992C4.11108 4.34162 4.52081 3.23077 5.25011 2.41173C5.97942 1.5927 6.96858 1.13257 7.99997 1.13257C9.03137 1.13257 10.0205 1.5927 10.7498 2.41173C11.4791 3.23077 11.8889 4.34162 11.8889 5.49992V8.99379" stroke="#22BB86" stroke-width="1.5" stroke-linecap="round" stroke-linejoin="round"/>
</svg>
